<svg width="84" height="83" viewBox="0 0 84 83" fill="none" xmlns="http://www.w3.org/2000/svg">
<g clip-path="url(#clip0_52_1991)" filter="url(#filter0_d_52_1991)">
<path d="M65.3003 49.906C61.1906 49.906 57.671 52.2312 55.9448 55.5848L48.6431 52.0223C51.6755 45.9275 58.0637 41.7114 65.4767 41.7114C68.1194 41.712 70.7317 42.2616 73.1396 43.3237L69.6368 50.8422C68.2769 50.2303 66.798 49.911 65.3003 49.906ZM19.1003 49.906C16.0196 49.906 13.2791 51.2233 11.3555 53.2822L5.27184 47.884C7.02299 45.9439 9.17771 44.3899 11.5925 43.3256C14.0074 42.2613 16.6269 41.711 19.2767 41.7114C26.7863 41.7114 33.2459 46.0361 36.23 52.2619L28.5692 55.7897C26.885 52.3234 23.294 49.906 19.1003 49.906Z" fill="#59EAEA"/>
<path d="M65.3 45.8086C67.2304 45.8086 69.142 46.1795 70.9254 46.9002C72.7089 47.6209 74.3294 48.6772 75.6945 50.0088C77.0595 51.3405 78.1423 52.9214 78.881 54.6612C79.6198 56.4011 80 58.2659 80 60.1491C80 62.0323 79.6198 63.8971 78.881 65.637C78.1423 67.3768 77.0595 68.9577 75.6945 70.2894C74.3294 71.621 72.7089 72.6773 70.9254 73.398C69.142 74.1187 67.2304 74.4896 65.3 74.4896C61.4013 74.4896 57.6623 72.9787 54.9055 70.2894C52.1487 67.6 50.6 63.9524 50.6 60.1491C50.6 56.3458 52.1487 52.6982 54.9055 50.0088C57.6623 47.3195 61.4013 45.8086 65.3 45.8086ZM65.3 70.3923C68.0848 70.3923 70.7555 69.3131 72.7246 67.3922C74.6938 65.4712 75.8 62.8658 75.8 60.1491C75.8 57.4324 74.6938 54.827 72.7246 52.9061C70.7555 50.9851 68.0848 49.9059 65.3 49.9059C62.5152 49.9059 59.8445 50.9851 57.8754 52.9061C55.9062 54.827 54.8 57.4324 54.8 60.1491C54.8 62.8658 55.9062 65.4712 57.8754 67.3922C59.8445 69.3131 62.5152 70.3923 65.3 70.3923ZM19.1 45.8086C22.999 45.8089 26.7381 47.3201 29.4949 50.0099C32.2517 52.6996 33.8003 56.3475 33.8 60.1512C33.7997 63.9548 32.2506 67.6025 29.4934 70.2918C26.7362 72.9812 22.9969 74.4919 19.0979 74.4917C17.1673 74.4915 15.2557 74.1204 13.4721 73.3996C11.6886 72.6787 10.068 71.6222 8.703 70.2904C7.33798 68.9586 6.25522 67.3775 5.51655 65.6375C4.77788 63.8974 4.39777 62.0325 4.3979 60.1491C4.39804 58.2657 4.77843 56.4009 5.51736 54.6609C6.25628 52.921 7.33926 51.34 8.70448 50.0084C10.0697 48.6768 11.6904 47.6205 13.4741 46.8999C15.2577 46.1793 17.1694 45.8085 19.1 45.8086ZM19.1 70.3923C21.8848 70.3923 24.5555 69.3131 26.5246 67.3922C28.4938 65.4712 29.6 62.8658 29.6 60.1491C29.6 57.4324 28.4938 54.827 26.5246 52.9061C24.5555 50.9851 21.8848 49.9059 19.1 49.9059C16.3152 49.9059 13.6445 50.9851 11.6754 52.9061C9.70625 54.827 8.6 57.4324 8.6 60.1491C8.6 62.8658 9.70625 65.4712 11.6754 67.3922C13.6445 69.3131 16.3152 70.3923 19.1 70.3923Z" fill="#292F33"/>
<path d="M17.034 59.9894C17.0476 59.8517 17.0757 59.7158 17.118 59.5838C17.1548 59.4523 17.2048 59.3247 17.2671 59.2027C17.2944 59.1535 17.2986 59.0962 17.328 59.0491L32.028 36.514C32.176 36.2868 32.3685 36.0904 32.5944 35.9358C32.8202 35.7813 33.0751 35.6717 33.3445 35.6133C33.6138 35.5549 33.8923 35.5488 34.164 35.5954C34.4357 35.6421 34.6954 35.7405 34.9281 35.885C35.2214 36.0718 35.4611 36.3284 35.6246 36.6305C35.7881 36.9327 35.87 37.2705 35.8626 37.612H54.8004C55.3573 37.612 55.8915 37.8279 56.2853 38.2121C56.6791 38.5963 56.9004 39.1174 56.9004 39.6607C56.9004 40.204 56.6791 40.7251 56.2853 41.1093C55.8915 41.4935 55.3573 41.7093 54.8004 41.7093H33.8004C33.7437 41.7093 33.6954 41.6807 33.6387 41.6766L22.9266 58.1005H42.2004C42.7573 58.1005 43.2915 58.3164 43.6853 58.7006C44.0791 59.0848 44.3004 59.6058 44.3004 60.1492C44.3004 60.6925 44.0791 61.2136 43.6853 61.5978C43.2915 61.982 42.7573 62.1978 42.2004 62.1978H19.0983C18.7764 62.1909 18.4604 62.1124 18.1743 61.9684C18.1092 61.9336 18.0357 61.9192 17.9706 61.8782C17.9076 61.8373 17.8698 61.7738 17.8131 61.7307C17.5962 61.5656 17.4167 61.3585 17.286 61.1223C17.223 61.0076 17.1705 60.8969 17.1285 60.7699C17.0858 60.6359 17.0577 60.4979 17.0445 60.3581C17.0361 60.2844 17.0004 60.2229 17.0004 60.1492C17.0004 60.0939 17.0298 60.0447 17.034 59.9894Z" fill="#312EDD"/>
<path d="M34.6798 33.5168L40.7677 50.1457L53.2186 36.2661C53.3991 36.0603 53.6198 35.8914 53.8677 35.7693C54.1156 35.6472 54.3859 35.5743 54.6629 35.5548C54.9399 35.5353 55.2181 35.5696 55.4815 35.6557C55.7448 35.7418 55.988 35.878 56.197 36.0565C56.406 36.2349 56.5766 36.452 56.6991 36.6952C56.8215 36.9384 56.8932 37.2028 56.9102 37.4733C56.9271 37.7437 56.8889 38.0147 56.7977 38.2706C56.7065 38.5265 56.5643 38.7623 56.3791 38.9642L42.3847 54.5646L44.1781 59.4609C44.3652 59.9727 44.3363 60.5361 44.0976 61.0271C43.8589 61.5181 43.4301 61.8965 42.9055 62.079C42.3808 62.2616 41.8033 62.2334 41.3 62.0005C40.7967 61.7677 40.4088 61.3494 40.2217 60.8376L30.2194 33.5168H34.6798Z" fill="#312EDD"/>
<path d="M65.2997 62.1979C65.6573 62.1974 66.0089 62.1078 66.3211 61.9375C66.6333 61.7673 66.8957 61.5221 67.0836 61.2252C67.2714 60.9283 67.3784 60.5895 67.3944 60.2409C67.4104 59.8924 67.3349 59.5456 67.175 59.2335L60.7448 46.7245C60.7091 46.6672 56.8997 40.9965 56.8997 35.5655C56.8997 28.9238 61.715 27.2829 61.7633 27.2665C62.0283 27.184 62.2738 27.051 62.4856 26.8753C62.6975 26.6995 62.8714 26.4844 62.9974 26.2425C63.1233 26.0006 63.1988 25.7367 63.2193 25.4661C63.2399 25.1955 63.2051 24.9237 63.1171 24.6663C63.029 24.4089 62.8895 24.1712 62.7065 23.9669C62.5235 23.7626 62.3007 23.5957 62.0511 23.4761C61.8015 23.3564 61.53 23.2863 61.2524 23.2699C60.9748 23.2534 60.6966 23.2909 60.434 23.3802C60.119 23.4826 52.6997 26.0045 52.6997 35.5655C52.6997 41.8508 56.5553 47.9435 57.1748 48.8756L63.4202 61.063C63.5938 61.4044 63.8618 61.6916 64.1939 61.8921C64.5261 62.0927 64.9091 62.1986 65.2997 62.1979Z" fill="#312EDD"/>
<path d="M49.3143 28.7292C49.4305 28.7298 49.5464 28.7202 49.6608 28.7006L62.2608 26.6519C62.8102 26.5625 63.3008 26.2639 63.6245 25.8217C63.9482 25.3795 64.0786 24.8299 63.987 24.2939C63.8954 23.7579 63.5893 23.2794 63.136 22.9636C62.6827 22.6478 62.1193 22.5206 61.5699 22.6099L48.9699 24.6586C48.4485 24.7414 47.9783 25.0129 47.6529 25.4188C47.3276 25.8248 47.171 26.3355 47.2145 26.8491C47.2579 27.3627 47.4982 27.8415 47.8874 28.1899C48.2766 28.5384 48.7861 28.731 49.3143 28.7292ZM24.5952 35.5656C24.6577 35.5656 24.7202 35.5615 24.7821 35.5533L36.6933 34.1028C37.0808 34.0714 37.4402 33.8932 37.6946 33.6063C37.949 33.3195 38.0781 32.9468 38.0542 32.5682C38.0303 32.1897 37.8553 31.8353 37.5668 31.581C37.2783 31.3268 36.8991 31.1929 36.5106 31.2081C36.4245 31.2081 27.9699 31.1712 23.9337 28.5469C23.6751 28.3799 23.3698 28.2953 23.0598 28.3048C22.7499 28.3144 22.4506 28.4176 22.2033 28.6002C21.9578 28.7849 21.7772 29.0394 21.6865 29.3287C21.5959 29.6179 21.5996 29.9274 21.6972 30.2145L23.1861 34.572C23.2836 34.8614 23.4723 35.1134 23.7254 35.2918C23.9785 35.4703 24.2829 35.5661 24.5952 35.5656Z" fill="#292F33"/>
<path d="M38.0004 60.1493C38.0004 61.236 38.4429 62.2781 39.2305 63.0465C40.0182 63.8149 41.0865 64.2466 42.2004 64.2466C43.3143 64.2466 44.3826 63.8149 45.1702 63.0465C45.9579 62.2781 46.4004 61.236 46.4004 60.1493C46.4004 59.0626 45.9579 58.0205 45.1702 57.2521C44.3826 56.4837 43.3143 56.052 42.2004 56.052C41.0865 56.052 40.0182 56.4837 39.2305 57.2521C38.4429 58.0205 38.0004 59.0626 38.0004 60.1493Z" fill="#66757F"/>
</g>
<defs>
<filter id="filter0_d_52_1991" x="0.400391" y="0.738525" width="83.5996" height="81.7512" filterUnits="userSpaceOnUse" color-interpolation-filters="sRGB">
<feFlood flood-opacity="0" result="BackgroundImageFix"/>
<feColorMatrix in="SourceAlpha" type="matrix" values="0 0 0 0 0 0 0 0 0 0 0 0 0 0 0 0 0 0 127 0" result="hardAlpha"/>
<feOffset dy="4"/>
<feGaussianBlur stdDeviation="2"/>
<feComposite in2="hardAlpha" operator="out"/>
<feColorMatrix type="matrix" values="0 0 0 0 0 0 0 0 0 0 0 0 0 0 0 0 0 0 0.25 0"/>
<feBlend mode="normal" in2="BackgroundImageFix" result="effect1_dropShadow_52_1991"/>
<feBlend mode="normal" in="SourceGraphic" in2="effect1_dropShadow_52_1991" result="shape"/>
</filter>
<clipPath id="clip0_52_1991">
<rect width="75.6" height="73.7512" fill="white" transform="matrix(-1 0 0 1 80 0.738525)"/>
</clipPath>
</defs>
</svg>
