<svg width="84" height="83" viewBox="0 0 84 83" fill="none" xmlns="http://www.w3.org/2000/svg">
<g clip-path="url(#clip0_52_1974)" filter="url(#filter0_d_52_1974)">
<path d="M65.3003 49.4482C61.1906 49.4482 57.671 51.7734 55.9448 55.1271L48.6431 51.5645C51.6755 45.4698 58.0637 41.2537 65.4767 41.2537C68.1194 41.2542 70.7317 41.8038 73.1396 42.8659L69.6368 50.3845C68.2769 49.7726 66.798 49.4532 65.3003 49.4482ZM19.1003 49.4482C16.0196 49.4482 13.2791 50.7655 11.3555 52.8244L5.27184 47.4262C7.02299 45.4861 9.17771 43.9322 11.5925 42.8678C14.0074 41.8035 16.6269 41.2533 19.2767 41.2537C26.7863 41.2537 33.2459 45.5783 36.23 51.8042L28.5692 55.3319C26.885 51.8656 23.294 49.4482 19.1003 49.4482Z" fill="#EA596E"/>
<path d="M65.3 45.3508C67.2304 45.3508 69.142 45.7218 70.9254 46.4424C72.7089 47.1631 74.3294 48.2194 75.6945 49.5511C77.0595 50.8827 78.1423 52.4636 78.881 54.2035C79.6198 55.9433 80 57.8081 80 59.6913C80 61.5746 79.6198 63.4393 78.881 65.1792C78.1423 66.9191 77.0595 68.5 75.6945 69.8316C74.3294 71.1633 72.7089 72.2196 70.9254 72.9402C69.142 73.6609 67.2304 74.0319 65.3 74.0319C61.4013 74.0319 57.6623 72.521 54.9055 69.8316C52.1487 67.1422 50.6 63.4947 50.6 59.6913C50.6 55.888 52.1487 52.2404 54.9055 49.5511C57.6623 46.8617 61.4013 45.3508 65.3 45.3508ZM65.3 69.9346C68.0848 69.9346 70.7555 68.8554 72.7246 66.9344C74.6938 65.0134 75.8 62.408 75.8 59.6913C75.8 56.9747 74.6938 54.3693 72.7246 52.4483C70.7555 50.5273 68.0848 49.4481 65.3 49.4481C62.5152 49.4481 59.8445 50.5273 57.8754 52.4483C55.9062 54.3693 54.8 56.9747 54.8 59.6913C54.8 62.408 55.9062 65.0134 57.8754 66.9344C59.8445 68.8554 62.5152 69.9346 65.3 69.9346ZM19.1 45.3508C22.999 45.3511 26.7381 46.8623 29.4949 49.5521C32.2517 52.2418 33.8003 55.8898 33.8 59.6934C33.7997 63.497 32.2506 67.1447 29.4934 69.8341C26.7362 72.5235 22.9969 74.0342 19.0979 74.0339C17.1673 74.0338 15.2557 73.6627 13.4721 72.9418C11.6886 72.221 10.068 71.1645 8.703 69.8326C7.33797 68.5008 6.25522 66.9197 5.51655 65.1797C4.77788 63.4396 4.39777 61.5747 4.3979 59.6913C4.39804 57.808 4.77843 55.9431 5.51736 54.2031C6.25629 52.4632 7.33926 50.8823 8.70448 49.5506C10.0697 48.219 11.6904 47.1627 13.4741 46.4421C15.2577 45.7215 17.1694 45.3507 19.1 45.3508ZM19.1 69.9346C21.8848 69.9346 24.5555 68.8554 26.5246 66.9344C28.4938 65.0134 29.6 62.408 29.6 59.6913C29.6 56.9747 28.4938 54.3693 26.5246 52.4483C24.5555 50.5273 21.8848 49.4481 19.1 49.4481C16.3152 49.4481 13.6445 50.5273 11.6754 52.4483C9.70625 54.3693 8.60001 56.9747 8.60001 59.6913C8.60001 62.408 9.70625 65.0134 11.6754 66.9344C13.6445 68.8554 16.3152 69.9346 19.1 69.9346Z" fill="#292F33"/>
<path d="M17.034 59.5316C17.0476 59.394 17.0757 59.258 17.118 59.126C17.1548 58.9945 17.2048 58.8669 17.2671 58.7449C17.2944 58.6958 17.2986 58.6384 17.328 58.5913L32.028 36.0562C32.176 35.8291 32.3685 35.6326 32.5944 35.4781C32.8202 35.3235 33.0751 35.2139 33.3445 35.1555C33.6138 35.0971 33.8923 35.091 34.164 35.1377C34.4357 35.1843 34.6954 35.2827 34.9281 35.4273C35.2214 35.614 35.4611 35.8706 35.6246 36.1727C35.7881 36.4749 35.87 36.8127 35.8626 37.1543H54.8004C55.3573 37.1543 55.8915 37.3701 56.2853 37.7543C56.6791 38.1385 56.9004 38.6596 56.9004 39.2029C56.9004 39.7463 56.6791 40.2673 56.2853 40.6515C55.8915 41.0357 55.3573 41.2516 54.8004 41.2516H33.8004C33.7437 41.2516 33.6954 41.2229 33.6387 41.2188L22.9266 57.6428H42.2004C42.7573 57.6428 43.2915 57.8586 43.6853 58.2428C44.0791 58.627 44.3004 59.1481 44.3004 59.6914C44.3004 60.2348 44.0791 60.7558 43.6853 61.14C43.2915 61.5242 42.7573 61.7401 42.2004 61.7401H19.0983C18.7764 61.7331 18.4604 61.6547 18.1743 61.5106C18.1092 61.4758 18.0357 61.4614 17.9706 61.4205C17.9076 61.3795 17.8698 61.316 17.8131 61.273C17.5962 61.1079 17.4167 60.9007 17.286 60.6645C17.223 60.5498 17.1705 60.4392 17.1285 60.3122C17.0858 60.1781 17.0577 60.0401 17.0445 59.9004C17.0361 59.8266 17.0004 59.7652 17.0004 59.6914C17.0004 59.6361 17.0298 59.5869 17.034 59.5316Z" fill="#DD2E44"/>
<path d="M34.6798 33.0591L40.7677 49.6879L53.2186 35.8084C53.3991 35.6025 53.6198 35.4337 53.8677 35.3116C54.1156 35.1895 54.3859 35.1166 54.6629 35.0971C54.9399 35.0776 55.2181 35.1119 55.4815 35.198C55.7448 35.2841 55.988 35.4203 56.197 35.5987C56.406 35.7771 56.5766 35.9942 56.6991 36.2374C56.8215 36.4806 56.8932 36.7451 56.9102 37.0155C56.9271 37.2859 56.8889 37.5569 56.7977 37.8129C56.7065 38.0688 56.5643 38.3045 56.3791 38.5064L42.3847 54.1069L44.1781 59.0031C44.3652 59.5149 44.3363 60.0783 44.0976 60.5693C43.8589 61.0603 43.4301 61.4387 42.9055 61.6213C42.3808 61.8038 41.8033 61.7756 41.3 61.5428C40.7967 61.31 40.4088 60.8916 40.2217 60.3798L30.2194 33.0591H34.6798Z" fill="#DD2E44"/>
<path d="M65.2997 61.7402C65.6573 61.7396 66.0089 61.65 66.3211 61.4798C66.6333 61.3095 66.8957 61.0643 67.0836 60.7674C67.2714 60.4705 67.3784 60.1317 67.3944 59.7832C67.4104 59.4346 67.3349 59.0879 67.175 58.7758L60.7448 46.2667C60.7091 46.2094 56.8997 40.5387 56.8997 35.1078C56.8997 28.4661 61.715 26.8251 61.7633 26.8087C62.0283 26.7263 62.2738 26.5933 62.4856 26.4175C62.6975 26.2417 62.8714 26.0266 62.9974 25.7847C63.1233 25.5428 63.1988 25.2789 63.2193 25.0083C63.2399 24.7378 63.2051 24.4659 63.1171 24.2085C63.029 23.9512 62.8895 23.7134 62.7065 23.5091C62.5235 23.3048 62.3007 23.138 62.0511 23.0183C61.8015 22.8987 61.53 22.8286 61.2524 22.8121C60.9748 22.7957 60.6966 22.8332 60.434 22.9224C60.119 23.0249 52.6997 25.5468 52.6997 35.1078C52.6997 41.393 56.5553 47.4857 57.1748 48.4178L63.4202 60.6052C63.5938 60.9466 63.8618 61.2338 64.1939 61.4344C64.5261 61.6349 64.9091 61.7409 65.2997 61.7402Z" fill="#DD2E44"/>
<path d="M49.3143 28.2715C49.4305 28.272 49.5464 28.2624 49.6608 28.2428L62.2608 26.1942C62.8102 26.1048 63.3008 25.8061 63.6245 25.3639C63.9482 24.9217 64.0786 24.3722 63.987 23.8362C63.8954 23.3002 63.5893 22.8216 63.136 22.5058C62.6827 22.19 62.1193 22.0628 61.5699 22.1522L48.9699 24.2008C48.4485 24.2836 47.9783 24.5551 47.6529 24.9611C47.3276 25.3671 47.171 25.8778 47.2145 26.3914C47.2579 26.905 47.4982 27.3837 47.8874 27.7322C48.2766 28.0806 48.7861 28.2732 49.3143 28.2715ZM24.5952 35.1078C24.6577 35.1078 24.7202 35.1037 24.7821 35.0955L36.6933 33.6451C37.0808 33.6137 37.4402 33.4354 37.6946 33.1486C37.949 32.8617 38.0781 32.4891 38.0542 32.1105C38.0303 31.7319 37.8553 31.3775 37.5668 31.1233C37.2783 30.869 36.8991 30.7351 36.5106 30.7503C36.4245 30.7503 27.9699 30.7135 23.9337 28.0892C23.6751 27.9221 23.3698 27.8375 23.0598 27.8471C22.7499 27.8566 22.4506 27.9598 22.2033 28.1424C21.9578 28.3271 21.7772 28.5817 21.6865 28.8709C21.5959 29.1601 21.5996 29.4697 21.6972 29.7567L23.1861 34.1142C23.2836 34.4036 23.4723 34.6556 23.7254 34.8341C23.9785 35.0125 24.2829 35.1083 24.5952 35.1078Z" fill="#292F33"/>
<path d="M38.0004 59.6915C38.0004 60.7782 38.4429 61.8204 39.2305 62.5887C40.0182 63.3571 41.0865 63.7888 42.2004 63.7888C43.3143 63.7888 44.3826 63.3571 45.1702 62.5887C45.9579 61.8204 46.4004 60.7782 46.4004 59.6915C46.4004 58.6049 45.9579 57.5627 45.1702 56.7943C44.3826 56.0259 43.3143 55.5942 42.2004 55.5942C41.0865 55.5942 40.0182 56.0259 39.2305 56.7943C38.4429 57.5627 38.0004 58.6049 38.0004 59.6915Z" fill="#66757F"/>
</g>
<defs>
<filter id="filter0_d_52_1974" x="0.400391" y="0.280762" width="83.5996" height="81.7512" filterUnits="userSpaceOnUse" color-interpolation-filters="sRGB">
<feFlood flood-opacity="0" result="BackgroundImageFix"/>
<feColorMatrix in="SourceAlpha" type="matrix" values="0 0 0 0 0 0 0 0 0 0 0 0 0 0 0 0 0 0 127 0" result="hardAlpha"/>
<feOffset dy="4"/>
<feGaussianBlur stdDeviation="2"/>
<feComposite in2="hardAlpha" operator="out"/>
<feColorMatrix type="matrix" values="0 0 0 0 0 0 0 0 0 0 0 0 0 0 0 0 0 0 0.25 0"/>
<feBlend mode="normal" in2="BackgroundImageFix" result="effect1_dropShadow_52_1974"/>
<feBlend mode="normal" in="SourceGraphic" in2="effect1_dropShadow_52_1974" result="shape"/>
</filter>
<clipPath id="clip0_52_1974">
<rect width="75.6" height="73.7512" fill="white" transform="matrix(-1 0 0 1 80 0.280762)"/>
</clipPath>
</defs>
</svg>
