<svg width="84" height="83" viewBox="0 0 84 83" fill="none" xmlns="http://www.w3.org/2000/svg">
<g clip-path="url(#clip0_52_2025)" filter="url(#filter0_d_52_2025)">
<path d="M65.3003 49.8213C61.1906 49.8213 57.671 52.1465 55.9448 55.5001L48.6431 51.9375C51.6755 45.8428 58.0637 41.6267 65.4767 41.6267C68.1194 41.6273 70.7317 42.1769 73.1396 43.239L69.6368 50.7575C68.2769 50.1456 66.798 49.8263 65.3003 49.8213ZM19.1003 49.8213C16.0196 49.8213 13.2791 51.1386 11.3555 53.1975L5.27184 47.7993C7.02299 45.8592 9.17771 44.3052 11.5925 43.2409C14.0074 42.1766 16.6269 41.6263 19.2767 41.6267C26.7863 41.6267 33.2459 45.9514 36.23 52.1772L28.5692 55.705C26.885 52.2387 23.294 49.8213 19.1003 49.8213Z" fill="#EA7359"/>
<path d="M65.3 45.7239C67.2304 45.7239 69.142 46.0948 70.9254 46.8155C72.7089 47.5362 74.3294 48.5925 75.6945 49.9241C77.0595 51.2558 78.1423 52.8366 78.881 54.5765C79.6198 56.3164 80 58.1812 80 60.0644C80 61.9476 79.6198 63.8124 78.881 65.5523C78.1423 67.2921 77.0595 68.873 75.6945 70.2047C74.3294 71.5363 72.7089 72.5926 70.9254 73.3133C69.142 74.034 67.2304 74.4049 65.3 74.4049C61.4013 74.4049 57.6623 72.894 54.9055 70.2047C52.1487 67.5153 50.6 63.8677 50.6 60.0644C50.6 56.261 52.1487 52.6135 54.9055 49.9241C57.6623 47.2347 61.4013 45.7239 65.3 45.7239ZM65.3 70.3076C68.0848 70.3076 70.7555 69.2284 72.7246 67.3074C74.6938 65.3865 75.8 62.7811 75.8 60.0644C75.8 57.3477 74.6938 54.7423 72.7246 52.8213C70.7555 50.9004 68.0848 49.8212 65.3 49.8212C62.5152 49.8212 59.8445 50.9004 57.8754 52.8213C55.9062 54.7423 54.8 57.3477 54.8 60.0644C54.8 62.7811 55.9062 65.3865 57.8754 67.3074C59.8445 69.2284 62.5152 70.3076 65.3 70.3076ZM19.1 45.7239C22.999 45.7241 26.7381 47.2354 29.4949 49.9251C32.2517 52.6149 33.8003 56.2628 33.8 60.0664C33.7997 63.87 32.2506 67.5178 29.4934 70.2071C26.7362 72.8965 22.9969 74.4072 19.0979 74.4069C17.1673 74.4068 15.2557 74.0357 13.4721 73.3149C11.6886 72.594 10.068 71.5375 8.703 70.2057C7.33798 68.8739 6.25522 67.2928 5.51655 65.5527C4.77788 63.8127 4.39777 61.9477 4.3979 60.0644C4.39804 58.181 4.77843 56.3161 5.51736 54.5762C6.25628 52.8363 7.33926 51.2553 8.70448 49.9237C10.0697 48.5921 11.6904 47.5358 13.4741 46.8152C15.2577 46.0946 17.1694 45.7237 19.1 45.7239ZM19.1 70.3076C21.8848 70.3076 24.5555 69.2284 26.5246 67.3074C28.4938 65.3865 29.6 62.7811 29.6 60.0644C29.6 57.3477 28.4938 54.7423 26.5246 52.8213C24.5555 50.9004 21.8848 49.8212 19.1 49.8212C16.3152 49.8212 13.6445 50.9004 11.6754 52.8213C9.70625 54.7423 8.6 57.3477 8.6 60.0644C8.6 62.7811 9.70625 65.3865 11.6754 67.3074C13.6445 69.2284 16.3152 70.3076 19.1 70.3076Z" fill="#292F33"/>
<path d="M17.034 59.9047C17.0476 59.767 17.0757 59.6311 17.118 59.499C17.1548 59.3676 17.2048 59.24 17.2671 59.118C17.2944 59.0688 17.2986 59.0115 17.328 58.9643L32.028 36.4293C32.176 36.2021 32.3685 36.0057 32.5944 35.8511C32.8202 35.6966 33.0751 35.587 33.3445 35.5286C33.6138 35.4701 33.8923 35.4641 34.164 35.5107C34.4357 35.5573 34.6954 35.6558 34.9281 35.8003C35.2214 35.9871 35.4611 36.2436 35.6246 36.5458C35.7881 36.8479 35.87 37.1857 35.8626 37.5273H54.8004C55.3573 37.5273 55.8915 37.7432 56.2853 38.1274C56.6791 38.5116 56.9004 39.0326 56.9004 39.576C56.9004 40.1193 56.6791 40.6404 56.2853 41.0246C55.8915 41.4088 55.3573 41.6246 54.8004 41.6246H33.8004C33.7437 41.6246 33.6954 41.5959 33.6387 41.5918L22.9266 58.0158H42.2004C42.7573 58.0158 43.2915 58.2317 43.6853 58.6159C44.0791 59 44.3004 59.5211 44.3004 60.0645C44.3004 60.6078 44.0791 61.1289 43.6853 61.5131C43.2915 61.8973 42.7573 62.1131 42.2004 62.1131H19.0983C18.7764 62.1062 18.4604 62.0277 18.1743 61.8837C18.1092 61.8488 18.0357 61.8345 17.9706 61.7935C17.9076 61.7525 17.8698 61.689 17.8131 61.646C17.5962 61.4809 17.4167 61.2737 17.286 61.0376C17.223 60.9228 17.1705 60.8122 17.1285 60.6852C17.0858 60.5512 17.0577 60.4132 17.0445 60.2734C17.0361 60.1997 17.0004 60.1382 17.0004 60.0645C17.0004 60.0092 17.0298 59.96 17.034 59.9047Z" fill="#2EDDC8"/>
<path d="M34.6798 33.4321L40.7677 50.061L53.2186 36.1814C53.3991 35.9756 53.6198 35.8067 53.8677 35.6846C54.1156 35.5625 54.3859 35.4896 54.6629 35.4701C54.9399 35.4506 55.2181 35.4849 55.4815 35.571C55.7448 35.6571 55.988 35.7933 56.197 35.9717C56.406 36.1502 56.5766 36.3673 56.6991 36.6105C56.8215 36.8536 56.8932 37.1181 56.9102 37.3885C56.9271 37.659 56.8889 37.93 56.7977 38.1859C56.7065 38.4418 56.5643 38.6776 56.3791 38.8795L42.3847 54.4799L44.1781 59.3762C44.3652 59.888 44.3363 60.4514 44.0976 60.9424C43.8589 61.4334 43.4301 61.8118 42.9055 61.9943C42.3808 62.1769 41.8033 62.1487 41.3 61.9158C40.7967 61.683 40.4088 61.2647 40.2217 60.7529L30.2194 33.4321H34.6798Z" fill="#2EDDC8"/>
<path d="M65.2997 62.1132C65.6573 62.1127 66.0089 62.023 66.3211 61.8528C66.6333 61.6826 66.8957 61.4374 67.0836 61.1405C67.2714 60.8436 67.3784 60.5048 67.3944 60.1562C67.4104 59.8077 67.3349 59.4609 67.175 59.1488L60.7448 46.6398C60.7091 46.5824 56.8997 40.9118 56.8997 35.4808C56.8997 28.8391 61.715 27.1982 61.7633 27.1818C62.0283 27.0993 62.2738 26.9663 62.4856 26.7905C62.6975 26.6148 62.8714 26.3997 62.9974 26.1578C63.1233 25.9159 63.1988 25.652 63.2193 25.3814C63.2399 25.1108 63.2051 24.839 63.1171 24.5816C63.029 24.3242 62.8895 24.0865 62.7065 23.8822C62.5235 23.6778 62.3007 23.511 62.0511 23.3914C61.8015 23.2717 61.53 23.2016 61.2524 23.1852C60.9748 23.1687 60.6966 23.2062 60.434 23.2955C60.119 23.3979 52.6997 25.9198 52.6997 35.4808C52.6997 41.7661 56.5553 47.8587 57.1748 48.7909L63.4202 60.9783C63.5938 61.3196 63.8618 61.6069 64.1939 61.8074C64.5261 62.008 64.9091 62.1139 65.2997 62.1132Z" fill="#2EDDC8"/>
<path d="M49.3143 28.6445C49.4305 28.6451 49.5464 28.6355 49.6608 28.6158L62.2608 26.5672C62.8102 26.4778 63.3008 26.1792 63.6245 25.737C63.9482 25.2948 64.0786 24.7452 63.987 24.2092C63.8954 23.6732 63.5893 23.1947 63.136 22.8789C62.6827 22.5631 62.1193 22.4358 61.5699 22.5252L48.9699 24.5739C48.4485 24.6567 47.9783 24.9281 47.6529 25.3341C47.3276 25.7401 47.171 26.2508 47.2145 26.7644C47.2579 27.278 47.4982 27.7567 47.8874 28.1052C48.2766 28.4537 48.7861 28.6462 49.3143 28.6445ZM24.5952 35.4809C24.6577 35.4808 24.7202 35.4767 24.7821 35.4686L36.6933 34.0181C37.0808 33.9867 37.4402 33.8085 37.6946 33.5216C37.949 33.2348 38.0781 32.8621 38.0542 32.4835C38.0303 32.1049 37.8553 31.7505 37.5668 31.4963C37.2783 31.2421 36.8991 31.1082 36.5106 31.1234C36.4245 31.1234 27.9699 31.0865 23.9337 28.4622C23.6751 28.2952 23.3698 28.2106 23.0598 28.2201C22.7499 28.2297 22.4506 28.3329 22.2033 28.5155C21.9578 28.7002 21.7772 28.9547 21.6865 29.2439C21.5959 29.5332 21.5996 29.8427 21.6972 30.1298L23.1861 34.4873C23.2836 34.7767 23.4723 35.0286 23.7254 35.2071C23.9785 35.3856 24.2829 35.4814 24.5952 35.4809Z" fill="#292F33"/>
<path d="M38.0004 60.0646C38.0004 61.1512 38.4429 62.1934 39.2305 62.9618C40.0182 63.7302 41.0865 64.1619 42.2004 64.1619C43.3143 64.1619 44.3826 63.7302 45.1702 62.9618C45.9579 62.1934 46.4004 61.1512 46.4004 60.0646C46.4004 58.9779 45.9579 57.9357 45.1702 57.1674C44.3826 56.399 43.3143 55.9673 42.2004 55.9673C41.0865 55.9673 40.0182 56.399 39.2305 57.1674C38.4429 57.9357 38.0004 58.9779 38.0004 60.0646Z" fill="#66757F"/>
</g>
<defs>
<filter id="filter0_d_52_2025" x="0.400391" y="0.653809" width="83.5996" height="81.751" filterUnits="userSpaceOnUse" color-interpolation-filters="sRGB">
<feFlood flood-opacity="0" result="BackgroundImageFix"/>
<feColorMatrix in="SourceAlpha" type="matrix" values="0 0 0 0 0 0 0 0 0 0 0 0 0 0 0 0 0 0 127 0" result="hardAlpha"/>
<feOffset dy="4"/>
<feGaussianBlur stdDeviation="2"/>
<feComposite in2="hardAlpha" operator="out"/>
<feColorMatrix type="matrix" values="0 0 0 0 0 0 0 0 0 0 0 0 0 0 0 0 0 0 0.25 0"/>
<feBlend mode="normal" in2="BackgroundImageFix" result="effect1_dropShadow_52_2025"/>
<feBlend mode="normal" in="SourceGraphic" in2="effect1_dropShadow_52_2025" result="shape"/>
</filter>
<clipPath id="clip0_52_2025">
<rect width="75.6" height="73.7512" fill="white" transform="matrix(-1 0 0 1 80 0.653809)"/>
</clipPath>
</defs>
</svg>
