<svg width="84" height="82" viewBox="0 0 84 82" fill="none" xmlns="http://www.w3.org/2000/svg">
<g clip-path="url(#clip0_52_2008)" filter="url(#filter0_d_52_2008)">
<path d="M65.3003 49.3638C61.1906 49.3638 57.671 51.689 55.9448 55.0426L48.6431 51.48C51.6755 45.3853 58.0637 41.1692 65.4767 41.1692C68.1194 41.1698 70.7317 41.7194 73.1396 42.7815L69.6368 50.3C68.2769 49.6881 66.798 49.3688 65.3003 49.3638ZM19.1003 49.3638C16.0196 49.3638 13.2791 50.681 11.3555 52.7399L5.27184 47.3418C7.02299 45.4016 9.17771 43.8477 11.5925 42.7834C14.0074 41.7191 16.6269 41.1688 19.2767 41.1692C26.7863 41.1692 33.2459 45.4939 36.23 51.7197L28.5692 55.2475C26.885 51.7812 23.294 49.3638 19.1003 49.3638Z" fill="#EAB059"/>
<path d="M65.3 45.2664C67.2304 45.2664 69.142 45.6373 70.9254 46.358C72.7089 47.0786 74.3294 48.135 75.6945 49.4666C77.0595 50.7982 78.1423 52.3791 78.881 54.119C79.6198 55.8589 80 57.7236 80 59.6069C80 61.4901 79.6198 63.3549 78.881 65.0947C78.1423 66.8346 77.0595 68.4155 75.6945 69.7471C74.3294 71.0788 72.7089 72.1351 70.9254 72.8558C69.142 73.5764 67.2304 73.9474 65.3 73.9474C61.4013 73.9474 57.6623 72.4365 54.9055 69.7471C52.1487 67.0578 50.6 63.4102 50.6 59.6069C50.6 55.8035 52.1487 52.156 54.9055 49.4666C57.6623 46.7772 61.4013 45.2664 65.3 45.2664ZM65.3 69.8501C68.0848 69.8501 70.7555 68.7709 72.7246 66.8499C74.6938 64.9289 75.8 62.3235 75.8 59.6069C75.8 56.8902 74.6938 54.2848 72.7246 52.3638C70.7555 50.4428 68.0848 49.3636 65.3 49.3636C62.5152 49.3636 59.8445 50.4428 57.8754 52.3638C55.9062 54.2848 54.8 56.8902 54.8 59.6069C54.8 62.3235 55.9062 64.9289 57.8754 66.8499C59.8445 68.7709 62.5152 69.8501 65.3 69.8501ZM19.1 45.2664C22.999 45.2666 26.7381 46.7779 29.4949 49.4676C32.2517 52.1574 33.8003 55.8053 33.8 59.6089C33.7997 63.4125 32.2506 67.0602 29.4934 69.7496C26.7362 72.439 22.9969 73.9497 19.0979 73.9494C17.1673 73.9493 15.2557 73.5782 13.4721 72.8573C11.6886 72.1365 10.068 71.08 8.703 69.7482C7.33798 68.4163 6.25522 66.8353 5.51655 65.0952C4.77788 63.3552 4.39777 61.4902 4.3979 59.6069C4.39804 57.7235 4.77843 55.8586 5.51736 54.1187C6.25628 52.3787 7.33926 50.7978 8.70448 49.4662C10.0697 48.1345 11.6904 47.0783 13.4741 46.3576C15.2577 45.637 17.1694 45.2662 19.1 45.2664ZM19.1 69.8501C21.8848 69.8501 24.5555 68.7709 26.5246 66.8499C28.4938 64.9289 29.6 62.3235 29.6 59.6069C29.6 56.8902 28.4938 54.2848 26.5246 52.3638C24.5555 50.4428 21.8848 49.3636 19.1 49.3636C16.3152 49.3636 13.6445 50.4428 11.6754 52.3638C9.70625 54.2848 8.6 56.8902 8.6 59.6069C8.6 62.3235 9.70625 64.9289 11.6754 66.8499C13.6445 68.7709 16.3152 69.8501 19.1 69.8501Z" fill="#292F33"/>
<path d="M17.034 59.4472C17.0476 59.3095 17.0757 59.1735 17.118 59.0415C17.1548 58.9101 17.2048 58.7824 17.2671 58.6605C17.2944 58.6113 17.2986 58.5539 17.328 58.5068L32.028 35.9717C32.176 35.7446 32.3685 35.5481 32.5944 35.3936C32.8202 35.2391 33.0751 35.1294 33.3445 35.071C33.6138 35.0126 33.8923 35.0066 34.164 35.0532C34.4357 35.0998 34.6954 35.1982 34.9281 35.3428C35.2214 35.5296 35.4611 35.7861 35.6246 36.0883C35.7881 36.3904 35.87 36.7282 35.8626 37.0698H54.8004C55.3573 37.0698 55.8915 37.2856 56.2853 37.6698C56.6791 38.054 56.9004 38.5751 56.9004 39.1185C56.9004 39.6618 56.6791 40.1829 56.2853 40.5671C55.8915 40.9513 55.3573 41.1671 54.8004 41.1671H33.8004C33.7437 41.1671 33.6954 41.1384 33.6387 41.1343L22.9266 57.5583H42.2004C42.7573 57.5583 43.2915 57.7741 43.6853 58.1583C44.0791 58.5425 44.3004 59.0636 44.3004 59.6069C44.3004 60.1503 44.0791 60.6714 43.6853 61.0556C43.2915 61.4398 42.7573 61.6556 42.2004 61.6556H19.0983C18.7764 61.6487 18.4604 61.5702 18.1743 61.4261C18.1092 61.3913 18.0357 61.377 17.9706 61.336C17.9076 61.295 17.8698 61.2315 17.8131 61.1885C17.5962 61.0234 17.4167 60.8162 17.286 60.5801C17.223 60.4653 17.1705 60.3547 17.1285 60.2277C17.0858 60.0937 17.0577 59.9557 17.0445 59.8159C17.0361 59.7422 17.0004 59.6807 17.0004 59.6069C17.0004 59.5516 17.0298 59.5025 17.034 59.4472Z" fill="#B0DD2E"/>
<path d="M34.6798 32.9746L40.7677 49.6035L53.2186 35.7239C53.3991 35.518 53.6198 35.3492 53.8677 35.2271C54.1156 35.105 54.3859 35.0321 54.6629 35.0126C54.9399 34.9931 55.2181 35.0274 55.4815 35.1135C55.7448 35.1996 55.988 35.3358 56.197 35.5142C56.406 35.6926 56.5766 35.9097 56.6991 36.1529C56.8215 36.3961 56.8932 36.6606 56.9102 36.931C56.9271 37.2014 56.8889 37.4725 56.7977 37.7284C56.7065 37.9843 56.5643 38.22 56.3791 38.422L42.3847 54.0224L44.1781 58.9186C44.3652 59.4305 44.3363 59.9938 44.0976 60.4848C43.8589 60.9758 43.4301 61.3543 42.9055 61.5368C42.3808 61.7194 41.8033 61.6911 41.3 61.4583C40.7967 61.2255 40.4088 60.8072 40.2217 60.2953L30.2194 32.9746H34.6798Z" fill="#B0DD2E"/>
<path d="M65.2997 61.6557C65.6573 61.6551 66.0089 61.5655 66.3211 61.3953C66.6333 61.225 66.8957 60.9799 67.0836 60.6829C67.2714 60.386 67.3784 60.0473 67.3944 59.6987C67.4104 59.3502 67.3349 59.0034 67.175 58.6913L60.7448 46.1823C60.7091 46.1249 56.8997 40.4543 56.8997 35.0233C56.8997 28.3816 61.715 26.7406 61.7633 26.7243C62.0283 26.6418 62.2738 26.5088 62.4856 26.333C62.6975 26.1572 62.8714 25.9421 62.9974 25.7002C63.1233 25.4583 63.1988 25.1944 63.2193 24.9239C63.2399 24.6533 63.2051 24.3814 63.1171 24.1241C63.029 23.8667 62.8895 23.629 62.7065 23.4246C62.5235 23.2203 62.3007 23.0535 62.0511 22.9338C61.8015 22.8142 61.53 22.7441 61.2524 22.7276C60.9748 22.7112 60.6966 22.7487 60.434 22.838C60.119 22.9404 52.6997 25.4623 52.6997 35.0233C52.6997 41.3086 56.5553 47.4012 57.1748 48.3334L63.4202 60.5207C63.5938 60.8621 63.8618 61.1493 64.1939 61.3499C64.5261 61.5505 64.9091 61.6564 65.2997 61.6557Z" fill="#B0DD2E"/>
<path d="M49.3143 28.187C49.4305 28.1876 49.5464 28.178 49.6608 28.1583L62.2608 26.1097C62.8102 26.0203 63.3008 25.7217 63.6245 25.2795C63.9482 24.8372 64.0786 24.2877 63.987 23.7517C63.8954 23.2157 63.5893 22.7372 63.136 22.4213C62.6827 22.1055 62.1193 21.9783 61.5699 22.0677L48.9699 24.1164C48.4485 24.1992 47.9783 24.4706 47.6529 24.8766C47.3276 25.2826 47.171 25.7933 47.2145 26.3069C47.2579 26.8205 47.4982 27.2992 47.8874 27.6477C48.2766 27.9961 48.7861 28.1887 49.3143 28.187ZM24.5952 35.0233C24.6577 35.0233 24.7202 35.0192 24.7821 35.011L36.6933 33.5606C37.0808 33.5292 37.4402 33.351 37.6946 33.0641C37.949 32.7773 38.0781 32.4046 38.0542 32.026C38.0303 31.6474 37.8553 31.293 37.5668 31.0388C37.2783 30.7845 36.8991 30.6507 36.5106 30.6659C36.4245 30.6659 27.9699 30.629 23.9337 28.0047C23.6751 27.8376 23.3698 27.7531 23.0598 27.7626C22.7499 27.7721 22.4506 27.8753 22.2033 28.0579C21.9578 28.2426 21.7772 28.4972 21.6865 28.7864C21.5959 29.0756 21.5996 29.3852 21.6972 29.6723L23.1861 34.0297C23.2836 34.3192 23.4723 34.5711 23.7254 34.7496C23.9785 34.928 24.2829 35.0239 24.5952 35.0233Z" fill="#292F33"/>
<path d="M38.0004 59.6071C38.0004 60.6937 38.4429 61.7359 39.2305 62.5043C40.0182 63.2727 41.0865 63.7043 42.2004 63.7043C43.3143 63.7043 44.3826 63.2727 45.1702 62.5043C45.9579 61.7359 46.4004 60.6937 46.4004 59.6071C46.4004 58.5204 45.9579 57.4782 45.1702 56.7098C44.3826 55.9414 43.3143 55.5098 42.2004 55.5098C41.0865 55.5098 40.0182 55.9414 39.2305 56.7098C38.4429 57.4782 38.0004 58.5204 38.0004 59.6071Z" fill="#66757F"/>
</g>
<defs>
<filter id="filter0_d_52_2008" x="0.400391" y="0.196289" width="83.5996" height="81.7512" filterUnits="userSpaceOnUse" color-interpolation-filters="sRGB">
<feFlood flood-opacity="0" result="BackgroundImageFix"/>
<feColorMatrix in="SourceAlpha" type="matrix" values="0 0 0 0 0 0 0 0 0 0 0 0 0 0 0 0 0 0 127 0" result="hardAlpha"/>
<feOffset dy="4"/>
<feGaussianBlur stdDeviation="2"/>
<feComposite in2="hardAlpha" operator="out"/>
<feColorMatrix type="matrix" values="0 0 0 0 0 0 0 0 0 0 0 0 0 0 0 0 0 0 0.25 0"/>
<feBlend mode="normal" in2="BackgroundImageFix" result="effect1_dropShadow_52_2008"/>
<feBlend mode="normal" in="SourceGraphic" in2="effect1_dropShadow_52_2008" result="shape"/>
</filter>
<clipPath id="clip0_52_2008">
<rect width="75.6" height="73.7512" fill="white" transform="matrix(-1 0 0 1 80 0.196289)"/>
</clipPath>
</defs>
</svg>
