<svg width="84" height="83" viewBox="0 0 84 83" fill="none" xmlns="http://www.w3.org/2000/svg">
<g clip-path="url(#clip0_52_2067)" filter="url(#filter0_d_52_2067)">
<path d="M65.3003 49.7366C61.1906 49.7366 57.671 52.0618 55.9448 55.4154L48.6431 51.8528C51.6755 45.7581 58.0637 41.542 65.4767 41.542C68.1194 41.5426 70.7317 42.0922 73.1396 43.1543L69.6368 50.6728C68.2769 50.0609 66.798 49.7416 65.3003 49.7366ZM19.1003 49.7366C16.0196 49.7366 13.2791 51.0538 11.3555 53.1127L5.27184 47.7146C7.02299 45.7744 9.17771 44.2205 11.5925 43.1562C14.0074 42.0919 16.6269 41.5416 19.2767 41.542C26.7863 41.542 33.2459 45.8667 36.23 52.0925L28.5692 55.6203C26.885 52.154 23.294 49.7366 19.1003 49.7366Z" fill="#EA596E"/>
<path d="M65.3 45.6396C67.2304 45.6396 69.142 46.0106 70.9254 46.7313C72.7089 47.4519 74.3294 48.5082 75.6945 49.8399C77.0595 51.1715 78.1423 52.7524 78.881 54.4923C79.6198 56.2322 80 58.0969 80 59.9802C80 61.8634 79.6198 63.7282 78.881 65.468C78.1423 67.2079 77.0595 68.7888 75.6945 70.1204C74.3294 71.4521 72.7089 72.5084 70.9254 73.2291C69.142 73.9497 67.2304 74.3207 65.3 74.3207C61.4013 74.3207 57.6623 72.8098 54.9055 70.1204C52.1487 67.4311 50.6 63.7835 50.6 59.9802C50.6 56.1768 52.1487 52.5293 54.9055 49.8399C57.6623 47.1505 61.4013 45.6396 65.3 45.6396ZM65.3 70.2234C68.0848 70.2234 70.7555 69.1442 72.7246 67.2232C74.6938 65.3022 75.8 62.6968 75.8 59.9802C75.8 57.2635 74.6938 54.6581 72.7246 52.7371C70.7555 50.8161 68.0848 49.7369 65.3 49.7369C62.5152 49.7369 59.8445 50.8161 57.8754 52.7371C55.9062 54.6581 54.8 57.2635 54.8 59.9802C54.8 62.6968 55.9062 65.3022 57.8754 67.2232C59.8445 69.1442 62.5152 70.2234 65.3 70.2234ZM19.1 45.6396C22.999 45.6399 26.7381 47.1512 29.4949 49.8409C32.2517 52.5307 33.8003 56.1786 33.8 59.9822C33.7997 63.7858 32.2506 67.4335 29.4934 70.1229C26.7362 72.8123 22.9969 74.323 19.0979 74.3227C17.1673 74.3226 15.2557 73.9515 13.4721 73.2306C11.6886 72.5098 10.068 71.4533 8.703 70.1215C7.33798 68.7896 6.25522 67.2086 5.51655 65.4685C4.77788 63.7285 4.39777 61.8635 4.3979 59.9802C4.39804 58.0968 4.77843 56.2319 5.51736 54.492C6.25628 52.752 7.33926 51.1711 8.70448 49.8395C10.0697 48.5078 11.6904 47.4515 13.4741 46.7309C15.2577 46.0103 17.1694 45.6395 19.1 45.6396ZM19.1 70.2234C21.8848 70.2234 24.5555 69.1442 26.5246 67.2232C28.4938 65.3022 29.6 62.6968 29.6 59.9802C29.6 57.2635 28.4938 54.6581 26.5246 52.7371C24.5555 50.8161 21.8848 49.7369 19.1 49.7369C16.3152 49.7369 13.6445 50.8161 11.6754 52.7371C9.70625 54.6581 8.6 57.2635 8.6 59.9802C8.6 62.6968 9.70625 65.3022 11.6754 67.2232C13.6445 69.1442 16.3152 70.2234 19.1 70.2234Z" fill="#292F33"/>
<path d="M17.034 59.8204C17.0476 59.6828 17.0757 59.5468 17.118 59.4148C17.1548 59.2834 17.2048 59.1557 17.2671 59.0338C17.2944 58.9846 17.2986 58.9272 17.328 58.8801L32.028 36.345C32.176 36.1179 32.3685 35.9214 32.5944 35.7669C32.8202 35.6123 33.0751 35.5027 33.3445 35.4443C33.6138 35.3859 33.8923 35.3799 34.164 35.4265C34.4357 35.4731 34.6954 35.5715 34.9281 35.7161C35.2214 35.9029 35.4611 36.1594 35.6246 36.4616C35.7881 36.7637 35.87 37.1015 35.8626 37.4431H54.8004C55.3573 37.4431 55.8915 37.6589 56.2853 38.0431C56.6791 38.4273 56.9004 38.9484 56.9004 39.4917C56.9004 40.0351 56.6791 40.5562 56.2853 40.9404C55.8915 41.3246 55.3573 41.5404 54.8004 41.5404H33.8004C33.7437 41.5404 33.6954 41.5117 33.6387 41.5076L22.9266 57.9316H42.2004C42.7573 57.9316 43.2915 58.1474 43.6853 58.5316C44.0791 58.9158 44.3004 59.4369 44.3004 59.9802C44.3004 60.5236 44.0791 61.0447 43.6853 61.4288C43.2915 61.813 42.7573 62.0289 42.2004 62.0289H19.0983C18.7764 62.0219 18.4604 61.9435 18.1743 61.7994C18.1092 61.7646 18.0357 61.7503 17.9706 61.7093C17.9076 61.6683 17.8698 61.6048 17.8131 61.5618C17.5962 61.3967 17.4167 61.1895 17.286 60.9533C17.223 60.8386 17.1705 60.728 17.1285 60.601C17.0858 60.467 17.0577 60.3289 17.0445 60.1892C17.0361 60.1154 17.0004 60.054 17.0004 59.9802C17.0004 59.9249 17.0298 59.8758 17.034 59.8204Z" fill="#DD2EAC"/>
<path d="M34.6798 33.3477L40.7677 49.9765L53.2186 36.0969C53.3991 35.8911 53.6198 35.7222 53.8677 35.6001C54.1156 35.478 54.3859 35.4051 54.6629 35.3856C54.9399 35.3661 55.2181 35.4004 55.4815 35.4865C55.7448 35.5727 55.988 35.7089 56.197 35.8873C56.406 36.0657 56.5766 36.2828 56.6991 36.526C56.8215 36.7692 56.8932 37.0336 56.9102 37.3041C56.9271 37.5745 56.8889 37.8455 56.7977 38.1014C56.7065 38.3574 56.5643 38.5931 56.3791 38.795L42.3847 54.3954L44.1781 59.2917C44.3652 59.8035 44.3363 60.3669 44.0976 60.8579C43.8589 61.3489 43.4301 61.7273 42.9055 61.9099C42.3808 62.0924 41.8033 62.0642 41.3 61.8314C40.7967 61.5985 40.4088 61.1802 40.2217 60.6684L30.2194 33.3477H34.6798Z" fill="#DD2EAC"/>
<path d="M65.2997 62.0285C65.6573 62.028 66.0089 61.9383 66.3211 61.7681C66.6333 61.5979 66.8957 61.3527 67.0836 61.0558C67.2714 60.7588 67.3784 60.4201 67.3944 60.0715C67.4104 59.723 67.3349 59.3762 67.175 59.0641L60.7448 46.5551C60.7091 46.4977 56.8997 40.8271 56.8997 35.3961C56.8997 28.7544 61.715 27.1134 61.7633 27.0971C62.0283 27.0146 62.2738 26.8816 62.4856 26.7058C62.6975 26.53 62.8714 26.3149 62.9974 26.073C63.1233 25.8311 63.1988 25.5672 63.2193 25.2967C63.2399 25.0261 63.2051 24.7542 63.1171 24.4969C63.029 24.2395 62.8895 24.0018 62.7065 23.7974C62.5235 23.5931 62.3007 23.4263 62.0511 23.3066C61.8015 23.187 61.53 23.1169 61.2524 23.1005C60.9748 23.084 60.6966 23.1215 60.434 23.2108C60.119 23.3132 52.6997 25.8351 52.6997 35.3961C52.6997 41.6814 56.5553 47.774 57.1748 48.7062L63.4202 60.8935C63.5938 61.2349 63.8618 61.5221 64.1939 61.7227C64.5261 61.9233 64.9091 62.0292 65.2997 62.0285Z" fill="#DD2EAC"/>
<path d="M49.3143 28.5598C49.4305 28.5604 49.5464 28.5508 49.6608 28.5311L62.2608 26.4825C62.8102 26.3931 63.3008 26.0945 63.6245 25.6523C63.9482 25.21 64.0786 24.6605 63.987 24.1245C63.8954 23.5885 63.5893 23.11 63.136 22.7941C62.6827 22.4783 62.1193 22.3511 61.5699 22.4405L48.9699 24.4892C48.4485 24.572 47.9783 24.8434 47.6529 25.2494C47.3276 25.6554 47.171 26.1661 47.2145 26.6797C47.2579 27.1933 47.4982 27.672 47.8874 28.0205C48.2766 28.3689 48.7861 28.5615 49.3143 28.5598ZM24.5952 35.3961C24.6577 35.3961 24.7202 35.392 24.7821 35.3838L36.6933 33.9334C37.0808 33.902 37.4402 33.7238 37.6946 33.4369C37.949 33.1501 38.0781 32.7774 38.0542 32.3988C38.0303 32.0202 37.8553 31.6658 37.5668 31.4116C37.2783 31.1573 36.8991 31.0235 36.5106 31.0387C36.4245 31.0387 27.9699 31.0018 23.9337 28.3775C23.6751 28.2105 23.3698 28.1259 23.0598 28.1354C22.7499 28.1449 22.4506 28.2481 22.2033 28.4307C21.9578 28.6154 21.7772 28.87 21.6865 29.1592C21.5959 29.4485 21.5996 29.758 21.6972 30.0451L23.1861 34.4025C23.2836 34.692 23.4723 34.9439 23.7254 35.1224C23.9785 35.3008 24.2829 35.3967 24.5952 35.3961Z" fill="#292F33"/>
<path d="M38.0004 59.9801C38.0004 61.0668 38.4429 62.1089 39.2305 62.8773C40.0182 63.6457 41.0865 64.0774 42.2004 64.0774C43.3143 64.0774 44.3826 63.6457 45.1702 62.8773C45.9579 62.1089 46.4004 61.0668 46.4004 59.9801C46.4004 58.8934 45.9579 57.8513 45.1702 57.0829C44.3826 56.3145 43.3143 55.8828 42.2004 55.8828C41.0865 55.8828 40.0182 56.3145 39.2305 57.0829C38.4429 57.8513 38.0004 58.8934 38.0004 59.9801Z" fill="#66757F"/>
</g>
<defs>
<filter id="filter0_d_52_2067" x="0.400391" y="0.569336" width="83.5996" height="81.751" filterUnits="userSpaceOnUse" color-interpolation-filters="sRGB">
<feFlood flood-opacity="0" result="BackgroundImageFix"/>
<feColorMatrix in="SourceAlpha" type="matrix" values="0 0 0 0 0 0 0 0 0 0 0 0 0 0 0 0 0 0 127 0" result="hardAlpha"/>
<feOffset dy="4"/>
<feGaussianBlur stdDeviation="2"/>
<feComposite in2="hardAlpha" operator="out"/>
<feColorMatrix type="matrix" values="0 0 0 0 0 0 0 0 0 0 0 0 0 0 0 0 0 0 0.25 0"/>
<feBlend mode="normal" in2="BackgroundImageFix" result="effect1_dropShadow_52_2067"/>
<feBlend mode="normal" in="SourceGraphic" in2="effect1_dropShadow_52_2067" result="shape"/>
</filter>
<clipPath id="clip0_52_2067">
<rect width="75.6" height="73.7512" fill="white" transform="matrix(-1 0 0 1 80 0.569336)"/>
</clipPath>
</defs>
</svg>
