<svg width="41" height="48" viewBox="0 0 41 48" fill="none" xmlns="http://www.w3.org/2000/svg">
<path d="M22.7998 4.2924V2.1462C22.7998 1.57699 22.568 1.0311 22.1554 0.628607C21.7429 0.226117 21.1833 0 20.5998 0H0.799805V45.0702C0.799805 45.6394 1.03159 46.1853 1.44417 46.5878C1.85675 46.9903 2.41633 47.2164 2.9998 47.2164C3.58328 47.2164 4.14286 46.9903 4.55544 46.5878C4.96802 46.1853 5.1998 45.6394 5.1998 45.0702V25.7544H18.3998V27.9006C18.3998 28.4698 18.6316 29.0157 19.0442 29.4182C19.4567 29.8207 20.0163 30.0468 20.5998 30.0468H40.3998V4.2924H22.7998ZM35.9998 17.1696H31.5998V21.462H35.9998V25.7544H31.5998V21.462H27.1998V25.7544H22.7998V21.462H18.3998V17.1696H13.9998V21.462H9.5998V17.1696H5.1998V12.8772H9.5998V8.58479H5.1998V4.2924H9.5998V8.58479H13.9998V4.2924H18.3998V8.58479H22.7998V12.8772H27.1998V8.58479H31.5998V12.8772H35.9998V17.1696Z" fill="black"/>
<path d="M13.9996 14.261H9.59961V18.5534H13.9996V14.261Z" fill="#020A33"/>
<path d="M18.4 9.96875H14V14.2611H18.4V9.96875Z" fill="#020A33"/>
<path d="M22.8004 14.261H18.4004V18.5534H22.8004V14.261Z" fill="#020A33"/>
<path d="M27.1998 18.5535H22.7998V22.8459H27.1998V18.5535Z" fill="#020A33"/>
<path d="M31.6002 14.261H27.2002V18.5534H31.6002V14.261Z" fill="#020A33"/>
</svg>
