<svg width="289" height="32" viewBox="0 0 289 32" fill="none" xmlns="http://www.w3.org/2000/svg">
<g filter="url(#filter0_d_52_1836)">
<path d="M4.625 21V3.5H11.45C12.9833 3.5 14.2917 3.74167 15.375 4.225C16.4583 4.70833 17.2917 5.40833 17.875 6.325C18.4583 7.24167 18.75 8.33333 18.75 9.6C18.75 10.8667 18.4583 11.9583 17.875 12.875C17.2917 13.775 16.4583 14.475 15.375 14.975C14.2917 15.4583 12.9833 15.7 11.45 15.7H6L7.125 14.525V21H4.625ZM7.125 14.775L6 13.525H11.375C12.975 13.525 14.1833 13.1833 15 12.5C15.8333 11.8167 16.25 10.85 16.25 9.6C16.25 8.35 15.8333 7.38333 15 6.7C14.1833 6.01667 12.975 5.675 11.375 5.675H6L7.125 4.425V14.775ZM27.699 21.15C26.3657 21.15 25.1824 20.8583 24.149 20.275C23.1157 19.6917 22.299 18.8917 21.699 17.875C21.099 16.8417 20.799 15.675 20.799 14.375C20.799 13.0583 21.099 11.8917 21.699 10.875C22.299 9.85833 23.1157 9.06667 24.149 8.5C25.1824 7.91667 26.3657 7.625 27.699 7.625C29.0157 7.625 30.1907 7.91667 31.224 8.5C32.274 9.06667 33.0907 9.85833 33.674 10.875C34.274 11.875 34.574 13.0417 34.574 14.375C34.574 15.6917 34.274 16.8583 33.674 17.875C33.0907 18.8917 32.274 19.6917 31.224 20.275C30.1907 20.8583 29.0157 21.15 27.699 21.15ZM27.699 19.05C28.549 19.05 29.3074 18.8583 29.974 18.475C30.6574 18.0917 31.1907 17.55 31.574 16.85C31.9574 16.1333 32.149 15.3083 32.149 14.375C32.149 13.425 31.9574 12.6083 31.574 11.925C31.1907 11.225 30.6574 10.6833 29.974 10.3C29.3074 9.91667 28.549 9.725 27.699 9.725C26.849 9.725 26.0907 9.91667 25.424 10.3C24.7574 10.6833 24.224 11.225 23.824 11.925C23.424 12.6083 23.224 13.425 23.224 14.375C23.224 15.3083 23.424 16.1333 23.824 16.85C24.224 17.55 24.7574 18.0917 25.424 18.475C26.0907 18.8583 26.849 19.05 27.699 19.05ZM37.8932 21V2.45H40.2932V21H37.8932ZM45.4506 26C44.8173 26 44.2006 25.8917 43.6006 25.675C43.0006 25.475 42.4839 25.175 42.0506 24.775L43.0756 22.975C43.4089 23.2917 43.7756 23.5333 44.1756 23.7C44.5756 23.8667 45.0006 23.95 45.4506 23.95C46.0339 23.95 46.5173 23.8 46.9006 23.5C47.2839 23.2 47.6423 22.6667 47.9756 21.9L48.8006 20.075L49.0506 19.775L54.2506 7.75H56.6006L50.1756 22.325C49.7923 23.2583 49.3589 23.9917 48.8756 24.525C48.4089 25.0583 47.8923 25.4333 47.3256 25.65C46.7589 25.8833 46.1339 26 45.4506 26ZM48.6006 21.425L42.5506 7.75H45.0506L50.2006 19.55L48.6006 21.425ZM64.1195 21.2C62.7862 21.2 61.5112 21 60.2945 20.6C59.0779 20.1833 58.1195 19.65 57.4195 19L58.3445 17.05C59.0112 17.6333 59.8612 18.1167 60.8945 18.5C61.9279 18.8833 63.0029 19.075 64.1195 19.075C65.1362 19.075 65.9612 18.9583 66.5945 18.725C67.2279 18.4917 67.6945 18.175 67.9945 17.775C68.2945 17.3583 68.4445 16.8917 68.4445 16.375C68.4445 15.775 68.2445 15.2917 67.8445 14.925C67.4612 14.5583 66.9529 14.2667 66.3195 14.05C65.7029 13.8167 65.0195 13.6167 64.2695 13.45C63.5195 13.2833 62.7612 13.0917 61.9945 12.875C61.2445 12.6417 60.5529 12.35 59.9195 12C59.3029 11.65 58.8029 11.1833 58.4195 10.6C58.0362 10 57.8445 9.23333 57.8445 8.3C57.8445 7.4 58.0779 6.575 58.5445 5.825C59.0279 5.05833 59.7612 4.45 60.7445 4C61.7445 3.53333 63.0112 3.3 64.5445 3.3C65.5612 3.3 66.5695 3.43333 67.5695 3.7C68.5695 3.96667 69.4362 4.35 70.1695 4.85L69.3445 6.85C68.5945 6.35 67.8029 5.99167 66.9695 5.775C66.1362 5.54167 65.3279 5.425 64.5445 5.425C63.5612 5.425 62.7529 5.55 62.1195 5.8C61.4862 6.05 61.0195 6.38333 60.7195 6.8C60.4362 7.21667 60.2945 7.68333 60.2945 8.2C60.2945 8.81667 60.4862 9.30833 60.8695 9.675C61.2695 10.0417 61.7779 10.3333 62.3945 10.55C63.0279 10.7667 63.7195 10.9667 64.4695 11.15C65.2195 11.3167 65.9695 11.5083 66.7195 11.725C67.4862 11.9417 68.1779 12.225 68.7945 12.575C69.4279 12.925 69.9362 13.3917 70.3195 13.975C70.7029 14.5583 70.8945 15.3083 70.8945 16.225C70.8945 17.1083 70.6529 17.9333 70.1695 18.7C69.6862 19.45 68.9362 20.0583 67.9195 20.525C66.9195 20.975 65.6529 21.2 64.1195 21.2ZM81.2219 21.15C80.1219 21.15 79.1135 20.9 78.1969 20.4C77.2969 19.8833 76.5719 19.125 76.0219 18.125C75.4885 17.125 75.2219 15.875 75.2219 14.375C75.2219 12.875 75.4802 11.625 75.9969 10.625C76.5302 9.625 77.2469 8.875 78.1469 8.375C79.0635 7.875 80.0885 7.625 81.2219 7.625C82.5219 7.625 83.6719 7.90833 84.6719 8.475C85.6719 9.04167 86.4635 9.83333 87.0469 10.85C87.6302 11.85 87.9219 13.025 87.9219 14.375C87.9219 15.725 87.6302 16.9083 87.0469 17.925C86.4635 18.9417 85.6719 19.7333 84.6719 20.3C83.6719 20.8667 82.5219 21.15 81.2219 21.15ZM74.1969 25.85V7.75H76.4969V11.325L76.3469 14.4L76.5969 17.475V25.85H74.1969ZM81.0219 19.05C81.8719 19.05 82.6302 18.8583 83.2969 18.475C83.9802 18.0917 84.5135 17.55 84.8969 16.85C85.2969 16.1333 85.4969 15.3083 85.4969 14.375C85.4969 13.425 85.2969 12.6083 84.8969 11.925C84.5135 11.225 83.9802 10.6833 83.2969 10.3C82.6302 9.91667 81.8719 9.725 81.0219 9.725C80.1885 9.725 79.4302 9.91667 78.7469 10.3C78.0802 10.6833 77.5469 11.225 77.1469 11.925C76.7635 12.6083 76.5719 13.425 76.5719 14.375C76.5719 15.3083 76.7635 16.1333 77.1469 16.85C77.5469 17.55 78.0802 18.0917 78.7469 18.475C79.4302 18.8583 80.1885 19.05 81.0219 19.05ZM97.1379 21.15C95.7212 21.15 94.4712 20.8583 93.3879 20.275C92.3212 19.6917 91.4879 18.8917 90.8879 17.875C90.3046 16.8583 90.0129 15.6917 90.0129 14.375C90.0129 13.0583 90.2962 11.8917 90.8629 10.875C91.4462 9.85833 92.2379 9.06667 93.2379 8.5C94.2546 7.91667 95.3962 7.625 96.6629 7.625C97.9462 7.625 99.0796 7.90833 100.063 8.475C101.046 9.04167 101.813 9.84167 102.363 10.875C102.93 11.8917 103.213 13.0833 103.213 14.45C103.213 14.55 103.205 14.6667 103.188 14.8C103.188 14.9333 103.18 15.0583 103.163 15.175H91.8879V13.45H101.913L100.938 14.05C100.955 13.2 100.78 12.4417 100.413 11.775C100.046 11.1083 99.5379 10.5917 98.8879 10.225C98.2546 9.84167 97.5129 9.65 96.6629 9.65C95.8296 9.65 95.0879 9.84167 94.4379 10.225C93.7879 10.5917 93.2796 11.1167 92.9129 11.8C92.5462 12.4667 92.3629 13.2333 92.3629 14.1V14.5C92.3629 15.3833 92.5629 16.175 92.9629 16.875C93.3796 17.5583 93.9546 18.0917 94.6879 18.475C95.4212 18.8583 96.2629 19.05 97.2129 19.05C97.9962 19.05 98.7046 18.9167 99.3379 18.65C99.9879 18.3833 100.555 17.9833 101.038 17.45L102.363 19C101.763 19.7 101.013 20.2333 100.113 20.6C99.2296 20.9667 98.2379 21.15 97.1379 21.15ZM112.446 21.15C111.029 21.15 109.779 20.8583 108.696 20.275C107.629 19.6917 106.796 18.8917 106.196 17.875C105.612 16.8583 105.321 15.6917 105.321 14.375C105.321 13.0583 105.604 11.8917 106.171 10.875C106.754 9.85833 107.546 9.06667 108.546 8.5C109.562 7.91667 110.704 7.625 111.971 7.625C113.254 7.625 114.387 7.90833 115.371 8.475C116.354 9.04167 117.121 9.84167 117.671 10.875C118.237 11.8917 118.521 13.0833 118.521 14.45C118.521 14.55 118.512 14.6667 118.496 14.8C118.496 14.9333 118.487 15.0583 118.471 15.175H107.196V13.45H117.221L116.246 14.05C116.262 13.2 116.087 12.4417 115.721 11.775C115.354 11.1083 114.846 10.5917 114.196 10.225C113.562 9.84167 112.821 9.65 111.971 9.65C111.137 9.65 110.396 9.84167 109.746 10.225C109.096 10.5917 108.587 11.1167 108.221 11.8C107.854 12.4667 107.671 13.2333 107.671 14.1V14.5C107.671 15.3833 107.871 16.175 108.271 16.875C108.687 17.5583 109.262 18.0917 109.996 18.475C110.729 18.8583 111.571 19.05 112.521 19.05C113.304 19.05 114.012 18.9167 114.646 18.65C115.296 18.3833 115.862 17.9833 116.346 17.45L117.671 19C117.071 19.7 116.321 20.2333 115.421 20.6C114.537 20.9667 113.546 21.15 112.446 21.15ZM127.328 21.15C126.045 21.15 124.895 20.8667 123.878 20.3C122.878 19.7333 122.086 18.9417 121.503 17.925C120.92 16.9083 120.628 15.725 120.628 14.375C120.628 13.025 120.92 11.85 121.503 10.85C122.086 9.83333 122.878 9.04167 123.878 8.475C124.895 7.90833 126.045 7.625 127.328 7.625C128.445 7.625 129.453 7.875 130.353 8.375C131.253 8.875 131.97 9.625 132.503 10.625C133.053 11.625 133.328 12.875 133.328 14.375C133.328 15.875 133.061 17.125 132.528 18.125C132.011 19.125 131.303 19.8833 130.403 20.4C129.503 20.9 128.478 21.15 127.328 21.15ZM127.528 19.05C128.361 19.05 129.111 18.8583 129.778 18.475C130.461 18.0917 130.995 17.55 131.378 16.85C131.778 16.1333 131.978 15.3083 131.978 14.375C131.978 13.425 131.778 12.6083 131.378 11.925C130.995 11.225 130.461 10.6833 129.778 10.3C129.111 9.91667 128.361 9.725 127.528 9.725C126.678 9.725 125.92 9.91667 125.253 10.3C124.586 10.6833 124.053 11.225 123.653 11.925C123.253 12.6083 123.053 13.425 123.053 14.375C123.053 15.3083 123.253 16.1333 123.653 16.85C124.053 17.55 124.586 18.0917 125.253 18.475C125.92 18.8583 126.678 19.05 127.528 19.05ZM132.053 21V17.425L132.203 14.35L131.953 11.275V2.45H134.353V21H132.053ZM142.719 21V5.675H136.719V3.5H151.194V5.675H145.194V21H142.719ZM153.312 26C152.679 26 152.062 25.8917 151.462 25.675C150.862 25.475 150.345 25.175 149.912 24.775L150.937 22.975C151.27 23.2917 151.637 23.5333 152.037 23.7C152.437 23.8667 152.862 23.95 153.312 23.95C153.895 23.95 154.379 23.8 154.762 23.5C155.145 23.2 155.504 22.6667 155.837 21.9L156.662 20.075L156.912 19.775L162.112 7.75H164.462L158.037 22.325C157.654 23.2583 157.22 23.9917 156.737 24.525C156.27 25.0583 155.754 25.4333 155.187 25.65C154.62 25.8833 153.995 26 153.312 26ZM156.462 21.425L150.412 7.75H152.912L158.062 19.55L156.462 21.425ZM173.727 21.15C172.627 21.15 171.618 20.9 170.702 20.4C169.802 19.8833 169.077 19.125 168.527 18.125C167.993 17.125 167.727 15.875 167.727 14.375C167.727 12.875 167.985 11.625 168.502 10.625C169.035 9.625 169.752 8.875 170.652 8.375C171.568 7.875 172.593 7.625 173.727 7.625C175.027 7.625 176.177 7.90833 177.177 8.475C178.177 9.04167 178.968 9.83333 179.552 10.85C180.135 11.85 180.427 13.025 180.427 14.375C180.427 15.725 180.135 16.9083 179.552 17.925C178.968 18.9417 178.177 19.7333 177.177 20.3C176.177 20.8667 175.027 21.15 173.727 21.15ZM166.702 25.85V7.75H169.002V11.325L168.852 14.4L169.102 17.475V25.85H166.702ZM173.527 19.05C174.377 19.05 175.135 18.8583 175.802 18.475C176.485 18.0917 177.018 17.55 177.402 16.85C177.802 16.1333 178.002 15.3083 178.002 14.375C178.002 13.425 177.802 12.6083 177.402 11.925C177.018 11.225 176.485 10.6833 175.802 10.3C175.135 9.91667 174.377 9.725 173.527 9.725C172.693 9.725 171.935 9.91667 171.252 10.3C170.585 10.6833 170.052 11.225 169.652 11.925C169.268 12.6083 169.077 13.425 169.077 14.375C169.077 15.3083 169.268 16.1333 169.652 16.85C170.052 17.55 170.585 18.0917 171.252 18.475C171.935 18.8583 172.693 19.05 173.527 19.05ZM183.743 21V7.75H186.143V21H183.743ZM184.943 5.2C184.476 5.2 184.084 5.05 183.768 4.75C183.468 4.45 183.318 4.08333 183.318 3.65C183.318 3.2 183.468 2.825 183.768 2.525C184.084 2.225 184.476 2.075 184.943 2.075C185.409 2.075 185.793 2.225 186.093 2.525C186.409 2.80833 186.568 3.16667 186.568 3.6C186.568 4.05 186.418 4.43333 186.118 4.75C185.818 5.05 185.426 5.2 184.943 5.2ZM197.8 7.625C198.884 7.625 199.834 7.83333 200.65 8.25C201.484 8.66667 202.134 9.3 202.6 10.15C203.067 11 203.3 12.075 203.3 13.375V21H200.9V13.65C200.9 12.3667 200.584 11.4 199.95 10.75C199.334 10.1 198.459 9.775 197.325 9.775C196.475 9.775 195.734 9.94167 195.1 10.275C194.467 10.6083 193.975 11.1 193.625 11.75C193.292 12.4 193.125 13.2083 193.125 14.175V21H190.725V7.75H193.025V11.325L192.65 10.375C193.084 9.50833 193.75 8.83333 194.65 8.35C195.55 7.86667 196.6 7.625 197.8 7.625ZM213.542 26C212.325 26 211.142 25.825 209.992 25.475C208.858 25.1417 207.933 24.6583 207.217 24.025L208.367 22.175C208.983 22.7083 209.742 23.125 210.642 23.425C211.542 23.7417 212.483 23.9 213.467 23.9C215.033 23.9 216.183 23.5333 216.917 22.8C217.65 22.0667 218.017 20.95 218.017 19.45V16.65L218.267 14.025L218.142 11.375V7.75H220.417V19.2C220.417 21.5333 219.833 23.25 218.667 24.35C217.5 25.45 215.792 26 213.542 26ZM213.242 20.45C211.958 20.45 210.808 20.1833 209.792 19.65C208.792 19.1 207.992 18.3417 207.392 17.375C206.808 16.4083 206.517 15.2917 206.517 14.025C206.517 12.7417 206.808 11.625 207.392 10.675C207.992 9.70833 208.792 8.95833 209.792 8.425C210.808 7.89167 211.958 7.625 213.242 7.625C214.375 7.625 215.408 7.85833 216.342 8.325C217.275 8.775 218.017 9.475 218.567 10.425C219.133 11.375 219.417 12.575 219.417 14.025C219.417 15.4583 219.133 16.65 218.567 17.6C218.017 18.55 217.275 19.2667 216.342 19.75C215.408 20.2167 214.375 20.45 213.242 20.45ZM213.517 18.35C214.4 18.35 215.183 18.1667 215.867 17.8C216.55 17.4333 217.083 16.925 217.467 16.275C217.867 15.625 218.067 14.875 218.067 14.025C218.067 13.175 217.867 12.425 217.467 11.775C217.083 11.125 216.55 10.625 215.867 10.275C215.183 9.90833 214.4 9.725 213.517 9.725C212.633 9.725 211.842 9.90833 211.142 10.275C210.458 10.625 209.917 11.125 209.517 11.775C209.133 12.425 208.942 13.175 208.942 14.025C208.942 14.875 209.133 15.625 209.517 16.275C209.917 16.925 210.458 17.4333 211.142 17.8C211.842 18.1667 212.633 18.35 213.517 18.35ZM225.353 21V3.5H232.178C233.711 3.5 235.019 3.74167 236.103 4.225C237.186 4.70833 238.019 5.40833 238.603 6.325C239.186 7.24167 239.478 8.33333 239.478 9.6C239.478 10.8667 239.186 11.9583 238.603 12.875C238.019 13.775 237.186 14.4667 236.103 14.95C235.019 15.4333 233.711 15.675 232.178 15.675H226.728L227.853 14.525V21H225.353ZM237.053 21L232.603 14.65H235.278L239.778 21H237.053ZM227.853 14.775L226.728 13.55H232.103C233.703 13.55 234.911 13.2083 235.728 12.525C236.561 11.825 236.978 10.85 236.978 9.6C236.978 8.35 236.561 7.38333 235.728 6.7C234.911 6.01667 233.703 5.675 232.103 5.675H226.728L227.853 4.425V14.775ZM251.27 21V18.2L251.145 17.675V12.9C251.145 11.8833 250.845 11.1 250.245 10.55C249.661 9.98333 248.778 9.7 247.595 9.7C246.811 9.7 246.045 9.83333 245.295 10.1C244.545 10.35 243.911 10.6917 243.395 11.125L242.395 9.325C243.078 8.775 243.895 8.35833 244.845 8.075C245.811 7.775 246.82 7.625 247.87 7.625C249.686 7.625 251.086 8.06667 252.07 8.95C253.053 9.83333 253.545 11.1833 253.545 13V21H251.27ZM246.92 21.15C245.936 21.15 245.07 20.9833 244.32 20.65C243.586 20.3167 243.02 19.8583 242.62 19.275C242.22 18.675 242.02 18 242.02 17.25C242.02 16.5333 242.186 15.8833 242.52 15.3C242.87 14.7167 243.428 14.25 244.195 13.9C244.978 13.55 246.028 13.375 247.345 13.375H251.545V15.1H247.445C246.245 15.1 245.436 15.3 245.02 15.7C244.603 16.1 244.395 16.5833 244.395 17.15C244.395 17.8 244.653 18.325 245.17 18.725C245.686 19.1083 246.403 19.3 247.32 19.3C248.22 19.3 249.003 19.1 249.67 18.7C250.353 18.3 250.845 17.7167 251.145 16.95L251.62 18.6C251.303 19.3833 250.745 20.0083 249.945 20.475C249.145 20.925 248.136 21.15 246.92 21.15ZM263.761 21.15C262.411 21.15 261.203 20.8583 260.136 20.275C259.086 19.6917 258.261 18.8917 257.661 17.875C257.061 16.8583 256.761 15.6917 256.761 14.375C256.761 13.0583 257.061 11.8917 257.661 10.875C258.261 9.85833 259.086 9.06667 260.136 8.5C261.203 7.91667 262.411 7.625 263.761 7.625C264.961 7.625 266.028 7.86667 266.961 8.35C267.911 8.81667 268.644 9.51667 269.161 10.45L267.336 11.625C266.903 10.975 266.369 10.5 265.736 10.2C265.119 9.88333 264.453 9.725 263.736 9.725C262.869 9.725 262.094 9.91667 261.411 10.3C260.728 10.6833 260.186 11.225 259.786 11.925C259.386 12.6083 259.186 13.425 259.186 14.375C259.186 15.325 259.386 16.15 259.786 16.85C260.186 17.55 260.728 18.0917 261.411 18.475C262.094 18.8583 262.869 19.05 263.736 19.05C264.453 19.05 265.119 18.9 265.736 18.6C266.369 18.2833 266.903 17.8 267.336 17.15L269.161 18.3C268.644 19.2167 267.911 19.925 266.961 20.425C266.028 20.9083 264.961 21.15 263.761 21.15ZM277.973 21.15C276.556 21.15 275.306 20.8583 274.223 20.275C273.156 19.6917 272.323 18.8917 271.723 17.875C271.14 16.8583 270.848 15.6917 270.848 14.375C270.848 13.0583 271.131 11.8917 271.698 10.875C272.281 9.85833 273.073 9.06667 274.073 8.5C275.09 7.91667 276.231 7.625 277.498 7.625C278.781 7.625 279.915 7.90833 280.898 8.475C281.881 9.04167 282.648 9.84167 283.198 10.875C283.765 11.8917 284.048 13.0833 284.048 14.45C284.048 14.55 284.04 14.6667 284.023 14.8C284.023 14.9333 284.015 15.0583 283.998 15.175H272.723V13.45H282.748L281.773 14.05C281.79 13.2 281.615 12.4417 281.248 11.775C280.881 11.1083 280.373 10.5917 279.723 10.225C279.09 9.84167 278.348 9.65 277.498 9.65C276.665 9.65 275.923 9.84167 275.273 10.225C274.623 10.5917 274.115 11.1167 273.748 11.8C273.381 12.4667 273.198 13.2333 273.198 14.1V14.5C273.198 15.3833 273.398 16.175 273.798 16.875C274.215 17.5583 274.79 18.0917 275.523 18.475C276.256 18.8583 277.098 19.05 278.048 19.05C278.831 19.05 279.54 18.9167 280.173 18.65C280.823 18.3833 281.39 17.9833 281.873 17.45L283.198 19C282.598 19.7 281.848 20.2333 280.948 20.6C280.065 20.9667 279.073 21.15 277.973 21.15Z" fill="white"/>
</g>
<defs>
<filter id="filter0_d_52_1836" x="0.625" y="0.0749512" width="287.423" height="31.925" filterUnits="userSpaceOnUse" color-interpolation-filters="sRGB">
<feFlood flood-opacity="0" result="BackgroundImageFix"/>
<feColorMatrix in="SourceAlpha" type="matrix" values="0 0 0 0 0 0 0 0 0 0 0 0 0 0 0 0 0 0 127 0" result="hardAlpha"/>
<feOffset dy="2"/>
<feGaussianBlur stdDeviation="2"/>
<feComposite in2="hardAlpha" operator="out"/>
<feColorMatrix type="matrix" values="0 0 0 0 0.964706 0 0 0 0 0.984314 0 0 0 0 1 0 0 0 1 0"/>
<feBlend mode="normal" in2="BackgroundImageFix" result="effect1_dropShadow_52_1836"/>
<feBlend mode="normal" in="SourceGraphic" in2="effect1_dropShadow_52_1836" result="shape"/>
</filter>
</defs>
</svg>
